<svg xmlns="http://www.w3.org/2000/svg" version="1.1" xmlns:xlink="http://www.w3.org/1999/xlink" width="512" height="512" x="0" y="0" viewBox="0 0 97.385 97.385" style="enable-background:new 0 0 512 512" xml:space="preserve" class=""><g><path d="M97.265 71.261a.495.495 0 0 0-.374-.172H.494a.494.494 0 0 0-.489.568c.014.09 1.468 9.016 12.753 9.016h71.869c11.284 0 12.738-8.926 12.753-9.016a.501.501 0 0 0-.115-.396zm-41.323 6.286h-14.5v-3.334h14.5v3.334zM10.507 67.619h76.37a2 2 0 0 0 2-2V18.713a2 2 0 0 0-2-2h-76.37a2 2 0 0 0-2 2v46.906a2 2 0 0 0 2 2zm5-43.906h66.37v36.906h-66.37V23.713z" fill="#FFFFFF" opacity="1" data-original="#FFFFFF" class=""></path></g></svg>